<?xml version="1.0" encoding="utf-8"?>
<svg xmlns="http://www.w3.org/2000/svg" height="24" width="24" viewBox="0 0 24 24">
  <g>
    <path id="path1" transform="rotate(0,12,12) translate(1.05000042915344,0) scale(0.75,0.75)  " fill="#FFFFFF" d="M14.700006,19.1L19.999991,19.1C25.099964,19.1,29.199999,23.200008,29.199999,28.300016L29.199999,32 0,32 0,28.399992C-9.5822543E-08,23.300015,4.0999738,19.200007,9.2000085,19.200007L14.499993,19.200007C13.999994,19.399988,12.09997,20.399988,12.09997,21.200007L14.09997,22.300015C14.09997,22.300015 12.09997,25.39999 12.09997,29.800016 12.09997,30.300018 16.999993,30.5 16.999993,29.800016 16.999993,25.300015 15.099969,22.200008 15.099969,22.200008L16.999993,21.1C16.999993,20.200007,15.200006,19.300013,14.700006,19.1z M14.599969,0C19.099968,0 22.799978,3.6999987 22.799978,8.2000008 22.799978,12.700003 19.099968,16.399986 14.599969,16.399986 10.099971,16.399986 6.4000217,12.800009 6.4000217,8.2000008 6.4000217,3.5999926 10.099971,0 14.599969,0z" />
  </g>
</svg>

