<?xml version="1.0" encoding="utf-8"?>
<svg xmlns="http://www.w3.org/2000/svg" height="24" width="24" viewBox="0 0 24 24">
  <g>
    <path id="path1" transform="rotate(0,12,12) translate(0,6.82500028610229) scale(0.75,0.75)  " fill="#FFFFFF" d="M2,2.0000019C3,6.3999995 6,11.699991 7.5,11.699991 10.5,11.699991 12.899994,9.0999831 12.899994,5.899999 12.899994,4.3999976 12.399994,3.0000027 11.399994,2.0000019z M20.5,1.8999953C19.5,3.0000027 19,4.3999976 19,5.899999 19,9.0999831 21.5,11.799998 24.5,11.799998 26.100006,11.799998 29.199982,6.5000056 30.100006,1.8999953z M0,0L11.899994,0C12.599991,0.59997624,13.199997,1.299989,13.599991,2.0999776L18.300003,2.0999776C18.800003,1.299989,19.300003,0.59997624,20,0L32,0 32,0.39999437C32,4.5999798 28.399994,13.799999 24.399994,13.799999 20.399994,13.799999 17.199997,10.400002 17.199997,6.0999807 17.199997,5.899999 17.300003,5.6999863 17.300003,5.3999985L14.599991,5.3999985C14.599991,5.5999802 14.699997,5.7999929 14.699997,6.0999807 14.699997,10.299996 11.5,13.799999 7.5,13.799999 3.5999908,13.699993 0,4.5999798 0,0.39999437z" />
  </g>
</svg>

