<?xml version="1.0" encoding="utf-8"?>
<svg xmlns="http://www.w3.org/2000/svg" height="24" width="24" viewBox="0 0 24 24">
  <g>
    <path id="path1" transform="rotate(0,12,12) translate(2.79862475395203,0) scale(0.75,0.75)  " fill="#FFFFFF" d="M17.628003,18.257996L15.852003,32 5.5840144,32 3.8860011,18.335999z M2.1880036,14.939026L19.326001,14.939026 19.326001,16.867981 2.1880036,16.867981z M1.3370056,9.2910156L4.2720027,14.147034 3.4040065,14.147034 0.64601137,9.7139893z M3.1270137,8.2780151L6.6840048,14.185974 5.7580099,14.166992 2.4330139,8.6970215z M5.016006,7.1550293L9.0910025,14.14801 8.3920126,14.169983 4.315002,7.5629883z M11.297011,6.6010132L12.108,6.6010132 12.108,14.127014 11.297011,14.127014z M9.1360007,6.6010132L9.9460135,6.6010132 9.9460135,14.127014 9.1360007,14.127014z M7.0510092,6.6010132L7.8620138,6.6010132 7.8620138,10.432983 7.0510092,9.1350098z M6.9210043,5.6350098L12.093,5.6350098 12.093,6.2529907 6.9210043,6.2529907z M6.9210043,4.5549927L12.093,4.5549927 12.093,5.1730347 6.9210043,5.1730347z M0.22801209,4.1500244L0.28201293,6.0570068 2,5.1080322z M0,3.7440186L4.4260097,6.2150269 0.10301209,8.8400269z M6.9210043,3.5510254L12.093,3.5510254 12.093,4.1680298 6.9210043,4.1680298z M6.9400015,0.048034668L12.073011,0.048034668 12.073011,3.0880127 6.9400015,3.0880127z M20.561002,0L24.537,2.1229858 23.225003,4.4780273 20.94801,3.2420044 20.128003,4.757019 22.453,6.0599976 21.565,7.6430054 19.236005,6.4060059 18.419004,7.9160156 20.75401,9.2249756 19.867002,10.807983 17.527005,9.5650024 16.719007,11.059021 19.094998,12.390991 18.206998,13.973999 15.827009,12.708984 15.08,14.088989 13.03401,14.088989z" />
  </g>
</svg>

