<?xml version="1.0" encoding="utf-8"?>
<svg xmlns="http://www.w3.org/2000/svg" height="24" width="24" viewBox="0 0 24 24">
  <g>
    <path id="path1" transform="rotate(0,12,12) translate(0,6.16874957084656) scale(0.75,0.75)  " fill="#FFFFFF" d="M30,11.900003L31,12.900004C31.599991,13.500011 31.599991,14.500012 31,15.100018 30.399994,15.699995 29.399994,15.699995 28.800003,15.100018L27.599991,13.799999C28.5,13.299999,29.300003,12.699992,30,11.900003z M1.8999939,11.699991C2.5999908,12.50001,3.3999939,13.199993,4.3999939,13.699993L3.1999969,15.000012C2.5999908,15.600019 1.5999908,15.600019 1,15.000012 0.3999939,14.400006 0.3999939,13.400005 1,12.799998z M24,1.6999831C21.199997,1.6999831 19,4.0000033 19,6.6999874 19,9.5000076 21.300003,11.699991 24,11.699991 26.800003,11.699991 29,9.4000015 29,6.6999874 29,4.0000033 26.800003,1.6999831 24,1.6999831z M7.8999939,1.6999831C5.0999908,1.6999831 2.8999939,4.0000033 2.8999939,6.6999874 2.8999939,9.5000076 5.1999969,11.699991 7.8999939,11.699991 10.699997,11.699991 12.899994,9.4000015 12.899994,6.6999874 12.899994,4.0000033 10.699997,1.6999831 7.8999939,1.6999831z M7.8999939,0C11.099991,1.042099E-08,13.699997,2.1999836,14.5,5.1000104L14.599991,5.2999921 17.599991,5.2999921 17.699997,5.1000104C18.300003,2.1999836 20.899994,1.042099E-08 24.099991,0 27.399994,1.042099E-08 30.099991,2.2999897 30.699997,5.3999982L30.699997,5.6000109 30.800003,5.6000109C31.5,5.7999926,32,6.299993,32,7.0000057L32,7.5000062C32,8.2999945,31.399994,8.9000015,30.599991,8.9000015L30.5,8.9000015 30.399994,9.1999893C29.5,11.799997 27,13.600018 24,13.600018 20.599991,13.600018 17.800003,11.100016 17.300003,7.9000006L17.300003,7.7999945 14.5,7.7999945 14.5,7.9000006C14,11.199991 11.199997,13.600018 7.8000031,13.600018 4.8999939,13.600018 2.3999939,11.699991 1.3999939,9.1999893L1.5,8.7999954 1.3999939,8.7999954C0.59999084,8.9000015,0,8.1999884,0,7.5000062L0,7.0000057C0,6.299993,0.5,5.7999926,1.0999908,5.6000109L1.1999969,5.6000109 1.1999969,5.3999982C1.8999939,2.2999897,4.5999908,1.042099E-08,7.8999939,0z" />
  </g>
</svg>

