<?xml version="1.0" encoding="utf-8"?>
<svg xmlns="http://www.w3.org/2000/svg" height="24" width="24" viewBox="0 0 24 24">
  <g>
    <path id="path1" transform="rotate(0,12,12) translate(0,0.712499856948853) scale(0.75,0.75)  " fill="#FFFFFF" d="M23.199997,18.399991L25,18.399991 25,21.299983 27.899994,21.299983 27.899994,22.999995 25,22.999995 25,25.899989 23.199997,25.899989 23.199997,22.999995 20.299995,22.999995 20.299995,21.199977 23.199997,21.199977z M24.099998,16.299985C20.799995,16.299985 18.199997,18.899991 18.199997,22.199977 18.199997,25.499995 20.799995,28.100001 24.099998,28.100001 27.399994,28.100001 30,25.499995 30,22.199977 30,18.899991 27.399994,16.299985 24.099998,16.299985z M24.099998,14.299985C28.399994,14.299985 32,17.799985 32,22.199977 32,26.499995 28.5,30.100001 24.099998,30.100001 19.799995,30.100001 16.199997,26.600001 16.199997,22.199977 16.199997,17.799985 19.799995,14.299985 24.099998,14.299985z M13.199997,0C16.899994,-3.1936906E-08 20,3.6000054 20,7.8999925 20,10.600004 18.899994,12.899992 17.099998,14.499997 17.399994,14.600003 17.599998,14.699979 17.899994,14.899991 17.399994,15.299985 17,15.799985 16.599998,16.299985 16.099998,16.100003 15.599998,15.899991 15,15.699979L15,13.899991C16.899994,12.799986 18.199997,10.799986 18.199997,8.1000042 18.199997,4.6999808 16,1.8999936 13.199997,1.8999935 10.399994,1.8999936 8.1999969,4.6999808 8.1999969,8.1000042 8.1999969,10.899992 9.5,12.899992 11.5,13.999997L11.5,15.699979C7.3999939,17.199979,3.8999939,18.999997,2.5,22.999995L14.5,22.999995C14.599998,23.600001,14.699997,24.199977,14.799995,24.799983L0,24.799983 0.79999542,22.399989C2.2999954,18.199979 5.6999969,16.100003 9.2999954,14.499997 7.3999939,12.999997 6.3999939,10.69998 6.3999939,7.8999925 6.3999939,3.6000054 9.3999939,-3.1936906E-08 13.199997,0z" />
  </g>
</svg>

