<?xml version="1.0" encoding="utf-8"?>
<svg xmlns="http://www.w3.org/2000/svg" height="24" width="24" viewBox="0 0 24 24">
  <g>
    <path id="path1" transform="rotate(0,12,12) translate(2.62950539588928,0) scale(0.75,0.75)  " fill="#FFFFFF" d="M7.9303994,16.244061L7.3269849,16.928018 9.2189827,18.596021 9.8212514,17.912638z M15.506993,9.0100245C14.887991,9.0100247 14.384989,9.5140231 14.384989,10.132021 14.384989,10.751019 14.887991,11.254017 15.506993,11.254017 16.124995,11.254017 16.628998,10.751019 16.628998,10.132021 16.628998,9.5140231 16.124995,9.0100247 15.506993,9.0100245z M17.106982,2.8149986L7.7479787,13.423995 12.813981,17.892993 16.9738,13.177587 16.865476,13.012369C16.728681,12.810055,16.584533,12.60922,16.433084,12.410087L16.212873,12.128583 16.136642,12.156546C15.937671,12.218581 15.726182,12.252014 15.506993,12.252014 14.337989,12.252014 13.386985,11.301017 13.386985,10.132021 13.386985,8.9630249 14.337989,8.0130279 15.506993,8.0130281 16.675998,8.0130279 17.626001,8.9630249 17.626001,10.132021 17.626001,10.278146 17.611157,10.420864 17.582898,10.558744L17.565792,10.632746 17.695542,10.788791C17.909535,11.051619,18.112493,11.317547,18.304328,11.586184L18.336598,11.632772 22.172984,7.2839966z M20.804997,1.7659988L19.985982,2.6946144 21.877122,4.3632112 22.695998,3.4339905z M16.931982,0L19.237738,2.0344219 20.716996,0.35700512 24.104999,3.3469911 22.625169,5.0232296 24.987985,7.1079974 19.420318,13.418541 19.600236,13.785732C20.949006,16.651309 21.112876,19.691791 20.003854,22.492038 18.835746,25.439022 16.372968,27.660988 13.53265,28.423004L13.281987,28.485336 13.281987,30.004995 18.949988,30.004995 18.949988,32 5.9839911,32 5.9839911,30.004995 11.286983,30.004995 11.286983,28.711102 11.0546,28.707111C8.2056346,28.609138,5.5773749,27.043179,3.529366,24.199223L3.4040213,24.021004 0,24.021004 0,22.025999 9.9740009,22.025999 9.9740009,24.021004 5.941772,24.021004 6.1209726,24.216472C7.8542953,26.055624 9.9243264,26.924465 12.070932,26.675022 14.696889,26.379063 17.082887,24.44907 18.148857,21.757052 18.978355,19.664254 18.918972,17.384985 18.029486,15.181239L17.976284,15.055247 12.98898,20.707992 10.569332,18.57278 9.3059826,20.004023 5.9189868,17.016018 7.1821632,15.583782 4.9329782,13.598995z" />
  </g>
</svg>

